HIERARCHY
ROOT Hips
{
  OFFSET 0 0 0
  CHANNELS 6 Xposition Yposition Zposition Zrotation Yrotation Xrotation
  JOINT LeftThigh
  {
    OFFSET 8.409438 0 -5.917753
    CHANNELS 3 Zrotation Yrotation Xrotation
    JOINT LeftLeg
    {
      OFFSET 0 0 -42.358652
      CHANNELS 3 Zrotation Yrotation Xrotation
      JOINT LeftFoot
      {
        OFFSET 0 0 -39.357303
        CHANNELS 3 Zrotation Yrotation Xrotation
      }
    }
  }
  JOINT RightThigh
  {
    OFFSET -8.409438 0 -5.917753
    CHANNELS 3 Zrotation Yrotation Xrotation
    JOINT RightLeg
    {
      OFFSET 0 0 -42.358652
      CHANNELS 3 Zrotation Yrotation Xrotation
      JOINT RightFoot
      {
        OFFSET 0 0 -39.357303
        CHANNELS 3 Zrotation Yrotation Xrotation
      }
    }
  }
  JOINT SpineLow
  {
    OFFSET 0 0 4.719101
    CHANNELS 3 Zrotation Yrotation Xrotation
    JOINT SpineMid
    {
      OFFSET 0 0 12.899191
      CHANNELS 3 Zrotation Yrotation Xrotation
      JOINT Chest
      {
        OFFSET 0 0 12.899191
        CHANNELS 3 Zrotation Yrotation Xrotation
        JOINT LeftShoulder
        {
          OFFSET 7.550562 1.41573 9.438202
          CHANNELS 3 Zrotation Yrotation Xrotation
          JOINT LeftArm
          {
            OFFSET 9.155056 0 4.247191
            CHANNELS 3 Zrotation Yrotation Xrotation
            JOINT LeftForearm
            {
              OFFSET 0 0 25.771955
              CHANNELS 3 Zrotation Yrotation Xrotation
              JOINT LeftHand
              {
                OFFSET 0 0 25.197169
                CHANNELS 3 Zrotation Yrotation Xrotation
              }
            }
          }
        }
        JOINT RightShoulder
        {
          OFFSET -7.550562 1.41573 9.438202
          CHANNELS 3 Zrotation Yrotation Xrotation
          JOINT RightArm
          {
            OFFSET -9.155056 0 4.247191
            CHANNELS 3 Zrotation Yrotation Xrotation
            JOINT RightForearm
            {
              OFFSET 0 0 -25.771955
              CHANNELS 3 Zrotation Yrotation Xrotation
              JOINT RightHand
              {
                OFFSET 0 0 -25.197169
                CHANNELS 3 Zrotation Yrotation Xrotation
              }
            }
          }
        }
        JOINT Neck
        {
          OFFSET 0 0 15.101124
          CHANNELS 3 Zrotation Yrotation Xrotation
          JOINT Head
          {
            OFFSET 0 0 11.325843
            CHANNELS 3 Zrotation Yrotation Xrotation
            End Site
            {
              OFFSET 0 0 14.157303
            }
          }
        }
      }
    }
  }
}
MOTION
Frames: 10
Frame Time: 0.0
0.0  93.25843  0.0  -5.146021  -17.054363  -88.236324  35.180146  -20.625345  -27.289077  -9.268327  7.582157  19.955679  2.568826  0.664605  1.87717  -14.368532  15.422606  -1.275492  -15.858268  2.945847  20.20534  -7.428339  -4.188003  -2.754083  0.07524  -0.950251  -0.363311  0.220041  -2.596216  -0.996503  0.220041  -2.596216  -0.996502  -17.954477  18.007191  -1.001125  -144.437921  62.498011  -85.508729  -28.610116  -0.632896  82.867789  54.525734  -8.415825  0.49915  -6.855007  -9.846345  18.252485  116.41133  23.051819  37.914376  -8.140157  -16.452753  -113.936525  77.631947  25.229371  16.328256  18.206621  0.647724  7.766641  13.649239  0.718196  5.81175  
0.0  93.25843  0.0  -5.222704  -16.789044  -87.993171  35.36233  -20.376629  -27.268097  -9.275781  7.234669  19.24482  2.396255  0.619753  1.909569  -13.471662  14.894611  -0.834052  -16.319753  2.913362  19.407636  -7.974855  -4.190087  -2.681726  0.046137  -0.973205  -0.505432  0.146525  -2.659059  -1.384092  0.146525  -2.659059  -1.384092  -17.97817  18.486044  -0.315057  -144.815556  62.051931  -85.399759  -28.553312  -0.810282  82.842748  54.470878  -8.395826  0.364991  -7.23964  -9.781017  18.185306  116.109025  22.750083  37.472482  -8.310974  -16.411677  -113.983384  76.584471  25.380075  15.968684  17.854872  0.454584  8.403944  13.387871  0.587332  6.296034  
0.0  93.25843  0.0  -5.263645  -16.611565  -87.645294  35.021939  -20.364325  -27.25617  -9.324365  7.177569  18.037122  2.737871  0.625134  2.372955  -12.878037  14.431846  -0.580802  -15.880782  2.738281  18.497305  -8.981709  -4.129528  -2.534941  0.017244  -0.995203  -0.659437  0.074315  -2.719586  -1.804153  0.074315  -2.719586  -1.804153  -17.744727  18.972797  0.24384  -145.310459  61.835573  -85.360346  -28.691248  -0.641931  82.780212  54.480234  -8.379357  0.368483  -7.253394  -9.683627  18.044736  116.196439  22.19973  36.924236  -8.950929  -16.399954  -113.852647  75.797461  25.525978  15.880385  17.589183  0.30477  8.997337  13.190796  0.488285  6.745863  
0.0  93.25843  0.0  -5.248666  -16.396283  -87.251046  34.114364  -20.547129  -27.194386  -8.201097  7.006533  17.63514  2.589694  0.651127  2.368919  -12.777218  14.126667  -0.557095  -15.62433  2.569047  17.670554  -9.622356  -4.043462  -2.343069  0.030316  -0.998114  -0.802033  0.11603  -2.726893  -2.194676  0.11603  -2.726893  -2.194676  -17.78235  19.276157  0.617007  -145.834839  61.820635  -85.336065  -28.906058  -0.389812  82.693465  54.559421  -8.325797  0.573509  -7.351291  -9.577863  17.896269  116.380567  21.799372  36.367582  -9.633397  -16.313311  -113.702472  75.302411  25.561592  16.060696  17.180988  0.187078  9.441788  12.886522  0.406395  7.082736  
0.0  93.25843  0.0  -5.096917  -16.277432  -86.914565  32.90237  -20.847533  -27.01049  -7.929216  7.383983  16.311452  3.194549  0.668784  2.896369  -12.915605  14.086729  -0.671535  -14.859073  2.580573  16.932967  -9.87483  -4.13278  -2.159337  0.053948  -0.980275  -0.924261  0.185005  -2.676968  -2.529836  0.185005  -2.676968  -2.529836  -17.879484  19.509022  0.771454  -146.288056  62.024702  -85.353442  -28.956997  -0.357009  82.637695  54.701018  -8.214513  0.859723  -7.25258  -9.441684  17.897889  116.506608  21.635814  35.88774  -10.170242  -16.104686  -113.581899  75.066672  25.498662  16.350205  16.839991  0.127281  9.771102  12.631817  0.365297  7.33144  
0.0  93.25843  0.0  -4.878429  -16.071224  -86.579529  31.474387  -21.200742  -26.792355  -6.675974  7.570784  15.94258  3.29245  0.698194  2.879083  -13.116588  14.210005  -0.807655  -14.982317  2.486757  16.251714  -9.779109  -4.178842  -2.102253  0.096363  -0.954022  -1.018848  0.303692  -2.603126  -2.790046  0.303692  -2.603126  -2.790046  -18.151643  19.704823  0.703561  -146.737302  62.401556  -85.341346  -28.749943  -0.700137  82.647643  54.93808  -8.064997  1.111955  -7.21351  -9.314662  17.92123  116.679366  21.542614  35.547619  -10.725346  -15.757596  -113.463422  74.929757  25.40359  16.573494  16.428834  0.17008  9.926828  12.322744  0.395025  7.446949  
0.0  93.25843  0.0  -4.599655  -16.026141  -86.382381  30.12829  -21.588979  -26.472955  -5.723338  7.948566  15.403452  3.572204  0.759387  2.995526  -13.13279  14.416597  -0.777312  -15.553245  2.26274  15.455597  -9.227617  -3.942612  -2.120999  0.173415  -0.931291  -1.08805  0.516045  -2.537177  -2.982088  0.516045  -2.537177  -2.982089  -18.605696  19.946272  0.579653  -147.044902  62.894297  -85.346465  -28.411407  -1.372217  82.746637  55.171261  -7.915109  1.250193  -7.465956  -9.117141  17.842072  117.107741  21.226092  35.27738  -11.186652  -15.332644  -113.384791  74.87724  25.277369  16.751858  16.017401  0.271518  10.023334  12.012441  0.467009  7.516515  
0.0  93.25843  0.0  -4.339661  -15.659424  -86.155945  28.664493  -21.897926  -26.212851  -4.780185  8.311221  15.061035  3.804358  0.767686  2.991328  -12.968112  14.637565  -0.599607  -16.093298  2.009824  14.692633  -9.198986  -3.938098  -2.069649  0.210732  -0.91824  -1.162916  0.620297  -2.499091  -3.188092  0.620297  -2.49909  -3.188092  -18.86389  20.177422  0.654372  -147.566776  63.352967  -85.359152  -28.040706  -2.283086  82.864851  55.185421  -7.81718  1.268844  -7.348376  -8.863046  18.019159  117.079094  21.271712  35.061477  -11.410016  -14.96789  -113.364941  74.968599  25.153802  16.903203  15.631642  0.456506  10.083801  11.719956  0.601092  7.557019  
0.0  93.25843  0.0  -4.077674  -15.297106  -86.003347  27.443478  -22.161316  -25.946207  -3.985553  8.692229  14.76764  3.976296  0.802504  2.95389  -12.888981  14.820508  -0.299972  -16.900693  1.60645  13.799868  -8.814386  -3.657841  -2.08847  0.24574  -0.906373  -1.218797  0.717502  -2.464338  -3.34206  0.717502  -2.464337  -3.34206  -19.00776  20.265465  0.772476  -147.941053  63.872859  -85.667767  -27.952313  -2.790297  83.268389  55.050603  -7.787125  1.170132  -7.161926  -8.655002  18.173509  116.950063  21.339908  34.863754  -11.46078  -14.665108  -113.361676  75.261434  25.019282  17.080356  15.188457  0.556009  10.03602  11.385798  0.667249  7.518665  
0.0  93.25843  0.0  -3.840135  -14.803446  -85.842  26.378227  -22.293108  -25.774591  -3.314887  9.032239  14.536528  4.167053  0.819772  2.920602  -12.661005  15.004537  0.073061  -17.216762  1.197701  13.009731  -9.057885  -3.615383  -2.015996  0.261646  -0.895943  -1.266903  0.762216  -2.434454  -3.474051  0.762216  -2.434454  -3.474051  -19.0721  20.259624  0.82158  -148.65916  64.220798  -85.884327  -27.925642  -3.302833  83.219751  54.889615  -7.810117  1.110858  -6.849019  -8.508318  18.318696  116.757784  21.405563  34.638592  -11.605975  -14.384857  -113.256213  75.751689  24.859897  17.323434  14.909853  0.781451  9.980371  11.173023  0.830534  7.47139  
